<svg xmlns="http://www.w3.org/2000/svg" viewBox="0 0 76.62 65.33">
  <path fill="#f4f0db" d="M72.86 61.1a1.2 1.2 0 001.21-1.26c0-.9-.54-1.33-1.65-1.33h-1.8v4.71h.67v-2.05h.84l.02.02 1.29 2.03h.72l-1.39-2.1zm-.78-.46h-.78v-1.6h1c.5 0 1.1.09 1.1.76 0 .77-.6.84-1.32.84"/>
  <path fill="#f4f0db" d="M55.2 55.2h-9.6V40.17c0-3.58-.06-8.2-4.99-8.2-5 0-5.76 3.9-5.76 7.94v15.3h-9.6V24.28h9.21v4.22h.13a10.1 10.1 0 019.1-5c9.72 0 11.52 6.4 11.52 14.73zM14.41 20.06a5.57 5.57 0 115.57-5.57 5.57 5.57 0 01-5.57 5.57m4.8 35.14h-9.6V24.3h9.6zM60 0H4.78A4.73 4.73 0 000 4.67v55.44a4.73 4.73 0 004.78 4.68h55.21a4.74 4.74 0 004.8-4.68V4.67A4.74 4.74 0 0059.99 0"/>
  <path fill="#f4f0db" d="M72.16 56.41a4.42 4.42 0 10.09 0h-.09m0 8.33a3.87 3.87 0 113.81-3.94v.07a3.8 3.8 0 01-3.7 3.87h-.1"/>
</svg>
