<svg xmlns="http://www.w3.org/2000/svg" xmlns:xlink="http://www.w3.org/1999/xlink" xmlns:sketch="http://www.bohemiancoding.com/sketch/ns" width="40px" height="40px" viewBox="0 0 40 40" version="1.1"><style>.style0{fill:	none;fill-rule:	evenodd;}.style1{fill:	#7794E3;}</style><title>1024x600</title><description>Created with Sketch (http://www.bohemiancoding.com/sketch)</description><defs/><g sketch:type="MSPage" class="style0"><g sketch:type="MSArtboardGroup" transform="translate(-966.000000, -17.000000)" class="style1"><g sketch:type="MSLayerGroup"><g sketch:type="MSShapeGroup"><path d="M986 57 C997 57 1006 48 1006 37 C1006 26 997 17 986 17 C975 17 966 26 966 37 C966 48 975 57 986 57 ZM997.8 24.6 L976.6 24.6 C975.6 24.6 974.8 25.4 974.8 26.4 L974.8 47.6 C974.8 48.6 975.6 49.4 976.6 49.4 L997.8 49.4 C998.8 49.4 999.6 48.6 999.6 47.6 L999.6 26.4 C999.6 25.4 998.8 24.6 997.8 24.6 ZM980.1 28.2 C981.3 28.2 982.3 29.2 982.3 30.3 C982.3 31.5 981.3 32.5 980.1 32.5 C979 32.5 978 31.5 978 30.3 C978 29.2 979 28.2 980.1 28.2 ZM978.3 34.1 L982 34.1 L982 45.9 L978.3 45.9 L978.3 34.1 ZM984.4 33.7 L987.9 33.7 L987.9 35.3 L988 35.3 C988.5 34.4 989.7 33.4 991.5 33.4 C995.2 33.4 995.9 35.8 995.9 39 L995.9 45.5 L992.2 45.5 L992.2 39.8 C992.2 38.4 992.2 36.6 990.3 36.6 C988.4 36.6 988.1 38.1 988.1 39.7 L988.1 45.5 L984.4 45.5 L984.4 33.7 Z"/></g></g></g></g></svg>