<svg xmlns="http://www.w3.org/2000/svg" width="200" height="195" viewBox="0" version="1.1"><title>Untitled 2</title><description>Created with Sketch (http://www.bohemiancoding.com/sketch)</description><g stroke="none" stroke-width="1" fill="none" fill-rule="evenodd"><path d="M100 0C44.8 0 0 44.8 0 100 0 144.1 28.7 181.6 68.4 194.8 73.4 195.7 75.2 192.7 75.2 190 75.2 187.6 75.1 181.3 75.1 173 47.3 179 41.4 159.6 41.4 159.6 36.8 148.1 30.3 145 30.3 145 21.2 138.8 31 138.9 31 138.9 41 139.6 46.3 149.2 46.3 149.2 55.2 164.5 69.7 160.1 75.4 157.5 76.3 151.1 78.9 146.6 81.7 144.2 59.5 141.6 36.2 133 36.2 94.7 36.2 83.8 40.1 74.9 46.5 67.9 45.5 65.4 42 55.2 47.5 41.5 47.5 41.5 55.9 38.8 75 51.7 82.9 49.5 91.5 48.4 100 48.3 108.5 48.4 117.1 49.5 125 51.7 144.1 38.8 152.5 41.5 152.5 41.5 158 55.2 154.5 65.4 153.5 67.9 159.9 74.9 163.8 83.8 163.8 94.7 163.8 133.1 140.4 141.6 118.1 144.1 121.7 147.2 124.9 153.3 124.9 162.6 124.9 175.9 124.8 186.7 124.8 190 124.8 192.7 126.6 195.8 131.7 194.8 171.4 181.6 200 144.1 200 100 200 44.8 155.2 0 100 0" fill="#7794E3"/></g></svg>