<svg xmlns="http://www.w3.org/2000/svg" xmlns:xlink="http://www.w3.org/1999/xlink" xmlns:sketch="http://www.bohemiancoding.com/sketch/ns" width="40px" height="40px" viewBox="0 0 40 40" version="1.1"><style>.style0{fill:	none;fill-rule:	evenodd;}.style1{fill:	#7794E3;}</style><title>1024x600</title><description>Created with Sketch (http://www.bohemiancoding.com/sketch)</description><defs/><g sketch:type="MSPage" class="style0"><g sketch:type="MSArtboardGroup" transform="translate(-912.000000, -17.000000)" class="style1"><g sketch:type="MSLayerGroup"><g sketch:type="MSShapeGroup"><path d="M932 57 C943 57 952 48 952 37 C952 26 943 17 932 17 C921 17 912 26 912 37 C912 48 921 57 932 57 ZM926.8 48.5 C923.5 48.5 920.5 47.5 918 45.8 C918.4 45.9 918.9 45.9 919.4 45.9 C922.1 45.9 924.5 45 926.5 43.4 C924 43.4 921.9 41.7 921.1 39.4 C921.5 39.5 921.8 39.5 922.2 39.5 C922.7 39.5 923.2 39.4 923.7 39.3 C921.1 38.7 919.1 36.4 919.1 33.6 C919.1 33.5 919.1 33.5 919.1 33.5 C919.9 33.9 920.8 34.2 921.7 34.2 C920.2 33.2 919.2 31.4 919.2 29.4 C919.2 28.3 919.5 27.3 919.9 26.4 C922.8 30 927 32.3 931.8 32.5 C931.7 32.1 931.6 31.7 931.6 31.2 C931.6 28 934.2 25.4 937.3 25.4 C939 25.4 940.5 26.1 941.5 27.2 C942.8 27 944.1 26.5 945.2 25.8 C944.7 27.2 943.8 28.3 942.6 29 C943.8 28.9 944.9 28.6 945.9 28.1 C945.2 29.3 944.2 30.3 943.1 31.1 C943.1 31.4 943.1 31.6 943.1 31.9 C943.1 39.6 937.3 48.5 926.8 48.5 Z"/></g></g></g></g></svg>